<svg width="40" height="40" viewBox="0 0 40 40" fill="none" xmlns="http://www.w3.org/2000/svg">
<path d="M27.1176 28.4118V23.4062C27.1176 20.7203 25.6552 19.4384 23.7663 19.4384C22.2429 19.4384 21.5117 20.293 21.1461 20.9034V19.6826H18.2213C18.2822 20.4761 18.2213 28.4118 18.2213 28.4118H21.1461V23.5283C21.1461 23.2231 21.2071 22.9789 21.268 22.7958C21.4508 22.3074 21.9383 21.758 22.7304 21.758C23.7663 21.758 24.1928 22.5516 24.1928 23.7114V28.4118H27.1176Z" fill="#387178"/>
<path d="M13.5294 16.9967C13.5294 16.1421 14.1997 15.4706 15.1746 15.4706C16.2105 15.4706 16.8198 16.081 16.7589 16.9967C16.7589 17.8513 16.1496 18.5228 15.1137 18.5228C14.1387 18.5228 13.5294 17.8513 13.5294 16.9967Z" fill="#387178"/>
<path d="M16.637 28.4118H13.7122V19.6826H16.637V28.4118Z" fill="#387178"/>
<path fill-rule="evenodd" clip-rule="evenodd" d="M9 10.3929C9 9.62363 9.62363 9 10.3929 9H29.6071C30.3764 9 31 9.62363 31 10.3929V29.6071C31 30.3764 30.3764 31 29.6071 31H10.3929C9.62363 31 9 30.3764 9 29.6071V10.3929ZM10.3929 10.2941H29.6071C29.6616 10.2941 29.7059 10.3384 29.7059 10.3929V29.6071C29.7059 29.6616 29.6616 29.7059 29.6071 29.7059H10.3929C10.3384 29.7059 10.2941 29.6616 10.2941 29.6071V10.3929C10.2941 10.3384 10.3384 10.2941 10.3929 10.2941Z" fill="#387178"/>
</svg>
