<svg width="40" height="40" viewBox="0 0 40 40" fill="none" xmlns="http://www.w3.org/2000/svg">
<g id="Component 2/Whatsapp_stroke48">
<g id="Union">
<path d="M24.8146 24.6597C24.5966 25.2516 23.5797 25.8434 23.0713 25.9174C22.6354 25.9914 22.0543 25.9914 21.4732 25.8434C21.3633 25.7986 21.24 25.7539 21.1055 25.705C20.7955 25.5923 20.4256 25.4579 20.0205 25.2516C17.4781 24.1726 15.8283 21.625 15.6052 21.2805L15.5896 21.2565C15.4443 21.1085 14.5 19.8508 14.5 18.5191C14.5 17.3636 14.9922 16.7651 15.2648 16.4336C15.3064 16.3831 15.3428 16.3387 15.3717 16.2996C15.5896 16.0037 15.8801 16.0037 16.098 16.0037H16.6065C16.6219 16.0037 16.6381 16.0028 16.6551 16.002C16.798 15.9946 16.9928 15.9846 17.1876 16.4476C17.2618 16.6239 17.3696 16.8945 17.4825 17.1777C17.7012 17.7263 17.9387 18.3223 17.9866 18.3711C18.0592 18.5191 18.0592 18.6671 17.9866 18.815C17.914 18.963 17.8413 19.111 17.6961 19.2589C17.611 19.3456 17.5259 19.4577 17.4554 19.5505C17.4055 19.6161 17.363 19.6722 17.3329 19.7028C17.1876 19.8508 17.0423 19.9988 17.1876 20.2207C17.3329 20.5166 17.8413 21.3305 18.6404 22.0703C19.5031 22.8235 20.209 23.1507 20.5807 23.323C20.647 23.3537 20.7028 23.3796 20.7468 23.402C21.0374 23.55 21.1827 23.476 21.3279 23.328C21.4732 23.18 21.9817 22.5882 22.127 22.2922C22.2722 21.9963 22.4902 22.0703 22.7081 22.1443C22.926 22.2183 24.2335 22.8841 24.4514 23.0321C24.7419 23.18 24.8872 23.254 24.9598 23.328C25.0325 23.55 25.0325 24.0678 24.8146 24.6597Z" fill="#387178"/>
<path fill-rule="evenodd" clip-rule="evenodd" d="M10 29.4986L15.8816 28.8716C17.2633 29.5925 18.8343 30 20.5006 30C26.0234 30 30.5006 25.5228 30.5006 20C30.5006 14.4772 26.0234 10 20.5006 10C14.9778 10 10.5006 14.4772 10.5006 20C10.5006 21.3709 10.7765 22.6774 11.2757 23.8669L10 29.4986ZM12.8448 23.7296L12.6588 23.2865C12.2354 22.2774 12.0006 21.168 12.0006 20C12.0006 15.3056 15.8062 11.5 20.5006 11.5C25.195 11.5 29.0006 15.3056 29.0006 20C29.0006 24.6944 25.195 28.5 20.5006 28.5C19.0816 28.5 17.748 28.1535 16.5754 27.5417L16.1734 27.332L11.9262 27.7848L12.8448 23.7296Z" fill="#387178"/>
</g>
</g>
</svg>
